# xmcd CD database file
#
# Track frame offsets:
#	150
#	38088
#	60788
#	87787
#	120080
#	148209
#	160158
#	181299
#	209825
#	233743
#	269084
#	290568
#
# Disc length: 4307 seconds
#
# Revision: 0
# Processed by: cddbd v1.5.2PL0 Copyright (c) Steve Scherf et al.
# Submitted via: CDex 1.51
#
DISCID=a910d10c
DTITLE=Ratko Zjaca, John Patitucci, Steve Gadd, Stanislav Mitrovic, Randy Brecker - Continental Talk
DYEAR=2009
DGENRE=Jazz
TTITLE0=breakfast in tokyo
TTITLE1=the new life
TTITLE2=portrait in retrograde
TTITLE3=inner ears
TTITLE4=kurosawa
TTITLE5=at the crossroads
TTITLE6=home again
TTITLE7=correspondance
TTITLE8=feather
TTITLE9=the gate
TTITLE10=anibas
TTITLE11=e doubt
EXTD=YEAR: 2009
EXTT0=
EXTT1=
EXTT2=
EXTT3=
EXTT4=
EXTT5=
EXTT6=
EXTT7=
EXTT8=
EXTT9=
EXTT10=
EXTT11=
PLAYORDER=
